<?xml version="1.0" encoding="utf-8"?>
<!-- Generator: Adobe Illustrator 22.1.0, SVG Export Plug-In . SVG Version: 6.00 Build 0)  -->
<svg version="1.1" id="Capa_1" xmlns="http://www.w3.org/2000/svg" xmlns:xlink="http://www.w3.org/1999/xlink" x="0px" y="0px"
	 viewBox="0 0 148 150" style="enable-background:new 0 0 148 150;" xml:space="preserve">
<style type="text/css">
	.st0{fill:url(#SVGID_1_);}
	.st1{fill:url(#B_1_);}
	.st2{fill:url(#SVGID_2_);}
	.st3{fill:url(#SVGID_3_);}
	.st4{fill:url(#SVGID_4_);}
	.st5{fill:url(#SVGID_5_);}
	.st6{fill:url(#SVGID_6_);}
	.st7{fill:url(#SVGID_7_);}
	.st8{fill:url(#SVGID_8_);}
	.st9{display:none;fill:none;stroke:url(#SVGID_9_);stroke-width:3.7;stroke-miterlimit:10;}
</style>
<g>
	<linearGradient id="SVGID_1_" gradientUnits="userSpaceOnUse" x1="36.1503" y1="36.23" x2="36.1503" y2="88.5324">
		<stop  offset="0" style="stop-color:#3FA9F5"/>
		<stop  offset="0.5109" style="stop-color:#40ABF4"/>
		<stop  offset="0.695" style="stop-color:#43B2F2"/>
		<stop  offset="0.8261" style="stop-color:#49BDEE"/>
		<stop  offset="0.9315" style="stop-color:#51CEE8"/>
		<stop  offset="1" style="stop-color:#59DEE2"/>
	</linearGradient>
	<path class="st0" d="M20.6,59.9c-0.3,2.6-0.2,5,0.5,7.4c2.1,6.6,6.5,11.2,13.3,12.8c7,1.7,12.8-0.7,17.7-5.8
		c0.2-0.2,0.4-0.5,0.6-0.8c1.4-1.7,3.9-2,5.5-0.8c1.8,1.4,2.2,3.8,0.8,5.7c-2.2,2.9-4.8,5.2-8,6.9c-9.6,5.1-22,4.6-30.8-4.4
		c-4.1-4.2-6.7-9.2-7.5-15.1c-0.1-1,0-1.6,0.9-2.2C15.7,62.2,18,60.9,20.6,59.9z M18.7,59.3c1.4-0.6,2.1-1.3,2.6-2.8
		c2.7-8,11.1-14.8,22.9-11.4c3.5,1,6.1,3.2,8.2,6c1.1,1.4,2.9,1.9,4.6,1.3c1.6-0.6,2.6-2,2.6-3.8c0-1.3-0.6-2.2-1.4-3.1
		c-5.9-6.7-13.3-9.8-22.1-9.1C25.5,37.1,18.2,42.9,14,52.8c-1.3,3.1-1.6,6.4-1.5,9.7C14.6,61.4,16.6,60.2,18.7,59.3z"/>
	<linearGradient id="B_1_" gradientUnits="userSpaceOnUse" x1="78.1502" y1="38.1751" x2="78.1502" y2="88.5324">
		<stop  offset="0" style="stop-color:#3FA9F5"/>
		<stop  offset="0.5109" style="stop-color:#40ABF4"/>
		<stop  offset="0.695" style="stop-color:#43B2F2"/>
		<stop  offset="0.8261" style="stop-color:#49BDEE"/>
		<stop  offset="0.9315" style="stop-color:#51CEE8"/>
		<stop  offset="1" style="stop-color:#59DEE2"/>
	</linearGradient>
	<path id="B_3_" class="st1" d="M86.4,71.1c-1.4-3.8-4.5-5-8.1-5.3c-2-0.2-3.9-0.1-5.9-0.1c-1.9,0-2.7,0.9-2.7,2.8
		c0,0.9,0,1.9,0,2.8c0,0.4-0.1,0.5-0.5,0.4c-2.4-0.7-4.7-1.7-6.9-2.9c-0.4-0.2-0.4-0.4-0.4-0.8c0-8.2,0-16.4,0-24.7
		c0-3,2.3-5.2,5.3-5.2c3.3,0,6.6-0.1,10,0c5.1,0.1,9.4,2,12.7,6c3.8,4.8,3.4,12.3-1,16.7c-0.4,0.4-0.5,0.6,0.1,1.1
		c2,1.4,3.4,3.3,4.4,5.5c0.2,0.5,0.3,0.8-0.4,1C90.6,69,88.5,70,86.4,71.1z M61.8,71.1c0,4.4,0,8.8,0,13.2c0,2.8,1.5,4.3,4.2,4.3
		c3.9,0,7.9,0,11.8,0c1.4,0,2.7-0.1,4-0.3c8.8-1.5,14.1-9.4,12.3-18.1c-0.1-0.6-0.4-0.6-0.9-0.5c-2.1,0.7-4.2,1.6-6.2,2.6
		c-0.4,0.2-0.5,0.5-0.4,0.8c0.1,1,0,1.9-0.3,2.9c-0.9,2.7-3,4-5.5,4.6c-3,0.8-6,0.5-9.1,0.5c-1.2,0-2.1-1.1-2.1-2.4
		c0-1.6,0-3.2,0-4.8c0-0.5-0.1-0.7-0.6-0.8c-1.5-0.4-3-0.9-4.4-1.6c-0.9-0.4-1.8-0.8-2.9-1.3C61.8,70.5,61.8,70.8,61.8,71.1z
		 M69.7,55.8c0,1.7,0.9,2.6,2.6,2.6c1.5,0,3,0,4.5,0c2,0,3.9-0.6,5.5-1.9c2.9-2.2,3-6.5,0.4-8.8c-1.2-1-2.5-1.7-4.1-1.9
		c-2.1-0.3-4.3-0.1-6.5-0.2c-1.7,0-2.5,0.9-2.5,2.6c0,1.2,0,2.5,0,3.7C69.7,53.2,69.7,54.5,69.7,55.8z"/>
	<g id="FAV_2_">
		
			<linearGradient id="SVGID_2_" gradientUnits="userSpaceOnUse" x1="1416.8483" y1="-334.8485" x2="1416.8483" y2="-337.282" gradientTransform="matrix(-0.7857 0.6187 0.6187 0.7857 1374.3169 -514.6064)">
			<stop  offset="0" style="stop-color:#3FA9F5"/>
			<stop  offset="0.5109" style="stop-color:#40ABF4"/>
			<stop  offset="0.695" style="stop-color:#43B2F2"/>
			<stop  offset="0.8261" style="stop-color:#49BDEE"/>
			<stop  offset="0.9315" style="stop-color:#51CEE8"/>
			<stop  offset="1" style="stop-color:#59DEE2"/>
		</linearGradient>
		<path class="st2" d="M55.6,95.5c0,0,0,0.1,0,0.2c0.1,0.6-0.1,1.1-0.1,1.3c-0.2,0.6-0.9,1.4-1.1,1.6s-0.5,0.3-0.8,0.4
			c-0.3,0.1-2.5,1.1-2.7,1.2c0,0-0.1,0-0.1,0c0,0,0,0,0-0.1c0,0-0.1-0.4,0-0.5c0.1-0.1,0.2-0.1,0.2,0c0.2,0,0.8-0.3,2.5-1.1
			c0.7-0.5,1.2-1.1,1.2-1.7c0.1-0.6-0.1-1.2-0.1-1.2c0,0,0-0.1,0-0.1"/>
		<linearGradient id="SVGID_3_" gradientUnits="userSpaceOnUse" x1="61.3181" y1="98.8421" x2="61.3181" y2="94.5842">
			<stop  offset="0" style="stop-color:#3FA9F5"/>
			<stop  offset="0.5109" style="stop-color:#40ABF4"/>
			<stop  offset="0.695" style="stop-color:#43B2F2"/>
			<stop  offset="0.8261" style="stop-color:#49BDEE"/>
			<stop  offset="0.9315" style="stop-color:#51CEE8"/>
			<stop  offset="1" style="stop-color:#59DEE2"/>
		</linearGradient>
		<path class="st3" d="M67.7,95.3c0.1-0.1,0.3,0,0.4,0.1c0.2,0.2,0.2,0.3-0.1,0.4c-1.3,0.8-2.5,1.5-3.6,1.9c-1.1,0.4-2.1,0.7-3,0.9
			l-1,0.1c-0.7,0-1.4-0.2-1.9-0.5C58,98,57.7,97.5,57.5,97c-0.2-0.5-0.3-1-0.3-1.4c-0.4,0.3-0.9,0.4-1.4,0.4
			c-0.5,0.1-0.9-0.1-1.3-0.4c-0.2-0.1-0.2-0.2,0-0.4c0.1-0.1,0.3-0.1,0.4,0c0.2,0.2,0.6,0.3,0.9,0.2c0.4-0.1,0.8-0.2,1.2-0.4
			c0.4-0.3,0.8-0.4,1-0.3c0.2,0.1,0.3,0.2,0.2,0.4c0,0.1,0,0.4,0,0.9c0,0.6,0.3,1.1,0.7,1.5c0.4,0.4,1.1,0.7,2,0.7
			c0.7-0.1,1.6-0.3,2.7-0.7C64.9,97,66.2,96.3,67.7,95.3z"/>
		<linearGradient id="SVGID_4_" gradientUnits="userSpaceOnUse" x1="72.5296" y1="100.9958" x2="72.5296" y2="94.976">
			<stop  offset="0" style="stop-color:#3FA9F5"/>
			<stop  offset="0.5109" style="stop-color:#40ABF4"/>
			<stop  offset="0.695" style="stop-color:#43B2F2"/>
			<stop  offset="0.8261" style="stop-color:#49BDEE"/>
			<stop  offset="0.9315" style="stop-color:#51CEE8"/>
			<stop  offset="1" style="stop-color:#59DEE2"/>
		</linearGradient>
		<path class="st4" d="M78.6,95.2c0.1-0.1,0.3-0.1,0.4,0c0,0.1,0,0.3,0,0.4c-1,1-2,1.9-3.1,2.6c-1.1,0.7-2.2,1.3-3.2,1.8
			c-0.5,0.3-1.1,0.4-1.6,0.6c-0.5,0.1-1,0.3-1.5,0.3h-0.1h-0.1h-0.4c-0.5,0-0.9,0-1.1-0.1c-0.8-0.2-1.4-0.7-1.6-1.6
			c-0.4-1.5,0-2.7,1.1-3.6c0.9-0.6,1.7-0.8,2.5-0.4c0,0,0.1,0,0.1,0c0,0,0,0,0.1,0c0.3,0.3,0.4,0.6,0.4,1c-0.1,0.4-0.2,0.7-0.4,1
			c-0.3,0.3-0.5,0.5-0.9,0.7c-0.3,0.2-0.7,0.4-1,0.5c-0.3,0.1-0.6,0.2-0.8,0.3c0.1,0.1,0.1,0.2,0.1,0.4c0.1,0.5,0.4,0.9,0.7,1
			c0.3,0.1,0.8,0.2,1.3,0.2c1.1-0.1,2.5-0.6,4.2-1.4C75.1,98.1,76.8,96.9,78.6,95.2z M69.7,96.1c0-0.2-0.1-0.3-0.1-0.4
			c-0.1,0-0.4,0-0.6,0.1c-0.3,0.1-0.5,0.3-0.8,0.5c-0.1,0.1-0.3,0.3-0.5,0.6c-0.2,0.3-0.3,0.6-0.4,1c0.4-0.1,1-0.3,1.5-0.6
			C69.3,97,69.6,96.6,69.7,96.1z"/>
		<linearGradient id="SVGID_5_" gradientUnits="userSpaceOnUse" x1="83.3584" y1="101.8938" x2="83.3584" y2="92.5772">
			<stop  offset="0" style="stop-color:#3FA9F5"/>
			<stop  offset="0.5109" style="stop-color:#40ABF4"/>
			<stop  offset="0.695" style="stop-color:#43B2F2"/>
			<stop  offset="0.8261" style="stop-color:#49BDEE"/>
			<stop  offset="0.9315" style="stop-color:#51CEE8"/>
			<stop  offset="1" style="stop-color:#59DEE2"/>
		</linearGradient>
		<path class="st5" d="M88.9,95.2c0.1,0,0.2,0.1,0.2,0.1c0.1,0,0.1,0.1,0.1,0.1c0,0,0.1,0.1,0.1,0.2c0,0.1,0,0.1-0.1,0.2
			c-0.1,0.1-0.3,0.1-0.3,0.1c-1,0-2.4,0.3-2.8,0.4c-0.4,0-1.4,0.3-2.7,0.7c-1,0.3-1.9,0.7-2.7,1.1c0.1,0.1,0.8,1.3,0.2,2.5
			c-0.1,0.2-0.5,0.9-1.3,1.2c-0.1,0.1-0.5,0.1-1,0.1c-0.3,0-0.6,0-0.7-0.1c0,0-0.1,0-0.1-0.1c-0.1,0-0.1,0-0.1-0.1
			c-0.1-0.1-0.2-0.2-0.2-0.3c-0.2-0.4,0-0.8,0.2-1.2c0.2-0.4,0.4-0.7,0.6-0.9c0.2-0.3,0.6-0.7,1.2-1.1c-0.1-0.2-0.2-0.5-0.4-0.9
			c-0.2-0.4-0.3-0.6-0.3-0.7c-0.3-0.8-0.3-1.5,0-2.1c0.4-0.6,0.9-1.1,1.5-1.5c0.2-0.1,0.5-0.2,0.9-0.3c0.4-0.1,0.7,0,0.9,0.3
			c0.1,0.1,0.1,0.3,0.1,0.5c-0.1,0.4-0.4,0.8-1,1.2c-0.6,0.4-1,0.7-1.3,0.9c0,0.2,0.1,0.4,0.1,0.7c0.2,0.5,0.4,1,0.6,1.3
			c0.8-0.3,1.5-0.6,2-0.8C82.5,96.7,86,95.3,88.9,95.2z M78.5,100.4c-0.1,0.4-0.1,0.7,0,0.8c0.1,0.1,0.3,0.2,0.6,0.1
			c0.4-0.2,0.7-0.4,0.9-0.7c0.1-0.2,0.1-0.5,0.1-0.7c0-0.3-0.1-0.6-0.2-1C79.1,99.3,78.7,99.8,78.5,100.4z M80.5,94.3
			c0.4-0.3,0.7-0.6,0.8-0.7c0.1-0.1,0.2-0.2,0.2-0.3h-0.2c-0.3,0-0.5,0.1-0.7,0.3c-0.4,0.3-0.7,0.8-0.9,1.3
			C80.1,94.7,80.3,94.5,80.5,94.3z"/>
		<linearGradient id="SVGID_6_" gradientUnits="userSpaceOnUse" x1="93.8903" y1="99.6488" x2="93.8903" y2="93.1682">
			<stop  offset="0" style="stop-color:#3FA9F5"/>
			<stop  offset="0.5109" style="stop-color:#40ABF4"/>
			<stop  offset="0.695" style="stop-color:#43B2F2"/>
			<stop  offset="0.8261" style="stop-color:#49BDEE"/>
			<stop  offset="0.9315" style="stop-color:#51CEE8"/>
			<stop  offset="1" style="stop-color:#59DEE2"/>
		</linearGradient>
		<path class="st6" d="M90.5,96.2c0.1,0.3,0.2,0.6,0.2,1c0.1,0.7-0.1,1.3-0.7,1.9l-0.7,0.4h-0.1c-0.1,0.1-0.2,0.1-0.4,0.1h-0.1
			c-0.3,0-0.6-0.2-0.9-0.5c-0.4-0.5-0.5-1.1-0.3-1.9c0.2-0.9,0.5-1.5,1-1.7c0.5-0.2,0.8-0.3,0.9-0.4c0,0,0.1,0,0.1,0.1
			c0,0,0.4,0.1,1.1,0.4c0.7,0.3,1.5,0.5,2.5,0.7c0.9,0.2,2.1,0.4,3.3,0.1c1.9-0.4,3.1-1.9,3.6-2.6c0.2-0.6,0.2-0.7,0.3-0.7
			c0.1,0,0.1,0.4,0.1,0.4c0,0.2,0,0.3,0,0.3c0,0.3-0.2,0.5-0.3,0.8c-0.1,0.2-0.4,0.6-0.9,0.9c-0.2,0.3-0.6,0.6-1.2,0.9
			c-0.4,0.2-0.7,0.3-1,0.3c0,0,0,0,0,0c0,0-2.2,0.5-4.2,0.1c-0.1,0-0.2,0-0.2,0c-0.2-0.1-0.6-0.1-1.1-0.3
			C91.2,96.4,90.8,96.3,90.5,96.2z M89.5,98.7c0.4-0.4,0.6-0.9,0.5-1.5c0-0.5-0.2-0.9-0.5-1.3c-0.1,0.1-0.3,0.2-0.4,0.3
			c-0.2,0.2-0.3,0.5-0.4,1.1c-0.1,0.4-0.1,0.7,0,0.9c0.1,0.2,0.1,0.4,0.2,0.5c0.1,0.1,0.2,0.2,0.3,0.2
			C89.2,98.9,89.4,98.8,89.5,98.7z"/>
		<linearGradient id="SVGID_7_" gradientUnits="userSpaceOnUse" x1="106.9119" y1="98.676" x2="106.9119" y2="92.5772">
			<stop  offset="0" style="stop-color:#3FA9F5"/>
			<stop  offset="0.5109" style="stop-color:#40ABF4"/>
			<stop  offset="0.695" style="stop-color:#43B2F2"/>
			<stop  offset="0.8261" style="stop-color:#49BDEE"/>
			<stop  offset="0.9315" style="stop-color:#51CEE8"/>
			<stop  offset="1" style="stop-color:#59DEE2"/>
		</linearGradient>
		<path class="st7" d="M113.3,93.6c0.1-0.1,0.3-0.1,0.4,0.2c0.2,0.3,0.2,0.5-0.1,0.6c-1.3,1.2-2.5,2.1-3.6,2.8
			c-1.1,0.6-2.1,1.1-3,1.3h-0.1c-0.1,0-0.1,0-0.1,0.1H106c-0.7,0-1.4-0.2-1.9-0.8c-0.5-0.5-0.9-1.1-1.1-1.9c-0.2-0.8-0.3-1.5-0.3-2
			c-0.4,0.3-0.7,0.4-0.9,0.5c-0.1,0-0.3,0.1-0.5,0.1c-0.4,0-0.7-0.1-0.9-0.2c-0.2-0.1-0.3-0.2-0.5-0.3c0,0-0.1-0.1-0.1-0.2
			c0-0.1,0-0.1,0.1-0.4c0.1-0.2,0.1-0.4,0.2-0.4c0.1-0.1,0.3,0.2,0.3,0.3c0,0.1,0.1,0.1,0.2,0.2c0.2,0.1,0.4,0.1,0.7,0.1
			c0.5-0.1,0.9-0.3,1.2-0.5c0.4-0.5,0.8-0.6,1-0.4c0.2,0.1,0.3,0.3,0.2,0.5c0,0.1,0,0.5,0,1.3c0,0.8,0.3,1.6,0.7,2.2
			c0.4,0.6,1.1,1,2,1c0.7-0.1,1.6-0.5,2.7-1.1C110.4,96.1,111.7,95.1,113.3,93.6z"/>
		<linearGradient id="SVGID_8_" gradientUnits="userSpaceOnUse" x1="120.3218" y1="123.0718" x2="120.3218" y2="79.045">
			<stop  offset="0" style="stop-color:#3FA9F5"/>
			<stop  offset="0.5109" style="stop-color:#40ABF4"/>
			<stop  offset="0.695" style="stop-color:#43B2F2"/>
			<stop  offset="0.8261" style="stop-color:#49BDEE"/>
			<stop  offset="0.9315" style="stop-color:#51CEE8"/>
			<stop  offset="1" style="stop-color:#59DEE2"/>
		</linearGradient>
		<path class="st8" d="M114.9,91c-0.3,1.7-0.5,3.6-0.7,5.8c-0.2,2.2-0.3,4.6-0.2,7.3c0.1,2.6,0.3,5.5,0.8,8.6
			c0.4,3.1,1.1,6.4,2.1,9.9c0,0.1,0,0.2-0.1,0.3c-0.1,0.1-0.2,0.1-0.2,0.1c-0.5,0-0.8-0.3-1-0.7c-0.8-3.1-1.5-6.1-1.9-9.2
			c-0.4-3-0.7-6-0.8-8.9c-0.1-2.3-0.1-4.6,0.1-6.9c0.2-2.2,0.5-4.4,0.9-6.6c0.6-3.3,1.4-6,2.2-7.9c-0.7,0-1.4-0.1-2.1-0.1
			c-0.7,0-1.4,0-2.2,0c-2.7,0.1-5.3,0.5-7.7,1.2c-2.5,0.7-4.6,1.5-6.3,2.6c-0.2,0.1-0.3,0.1-0.4-0.1c-0.1-0.1-0.1-0.3,0.1-0.4
			c1.8-1,4-1.9,6.5-2.6s5.2-1.1,7.9-1.2c0.8,0,1.6-0.1,2.3-0.1s1.5,0.1,2.2,0.1c0.3-0.9,0.6-1.6,0.9-2.1c0.2-0.5,0.4-0.7,0.4-0.8
			l0.1-0.1c0.1,0,0.2-0.1,0.4-0.1c0.2,0,0.3,0,0.4,0.1c0.1,0.2,0.2,0.3,0.1,0.4v0.1c-0.1,0.2-0.2,0.4-0.4,0.7
			c-0.3,0.5-0.6,1.2-0.8,1.9c2.8,0.4,4.8,1.2,5.9,2.3c0.5,0.4,0.8,1,1,1.7c1.4-0.3,3-0.5,4.7-0.6c2.9-0.1,5.3-0.3,7.1-0.6
			c1.8-0.2,3.3-0.5,4.3-0.9v-0.1c0.8-0.2,1.4-0.6,1.6-1c0.2-0.4,0.3-0.8,0.4-1c0-0.1,0-0.2,0.1-0.3c0-0.1,0.1-0.2,0.3-0.2
			c0.2-0.1,0.4,0,0.6,0.2c0.2,0.1,0.2,0.4,0.1,0.7c-0.3,0.6-0.7,1.1-1.2,1.5c-0.6,0.4-1.4,0.8-2.5,1c-1.1,0.3-2.5,0.5-4.3,0.7
			c-1.7,0.2-3.9,0.3-6.5,0.5c-1,0.1-1.9,0.1-2.7,0.3c-0.8,0.1-1.4,0.2-2,0.3c0,0.6-0.2,1.3-0.6,2.1c-0.4,0.7-0.8,1.2-1.3,1.5
			c-0.5,0.3-0.9,0.4-1.2,0.5c-0.3,0-0.6-0.2-0.9-0.5c-0.3-0.4-0.2-1,0.2-1.7c0.5-0.9,1.3-1.5,2.4-1.9c0.1,0,0.2-0.1,0.4-0.1
			c0.1,0,0.3-0.1,0.4-0.1c-0.1-0.4-0.3-0.9-0.8-1.4c-1.1-1.1-3-1.8-5.7-2.1c-0.3,0.9-0.7,2.1-1.1,3.4
			C115.6,87.8,115.3,89.3,114.9,91z M123.1,88.7c0.3-0.6,0.5-1.1,0.5-1.6c-0.8,0.3-1.4,0.5-1.7,0.9c-0.3,0.3-0.6,0.7-0.8,1
			c-0.3,0.4-0.4,0.7-0.3,0.8c0,0.1,0.1,0.3,0.1,0.3c0,0.1,0.1,0.1,0.3,0.1c0.2,0,0.6-0.1,0.9-0.4C122.5,89.7,122.8,89.3,123.1,88.7z
			"/>
		
			<linearGradient id="SVGID_9_" gradientUnits="userSpaceOnUse" x1="-412.1161" y1="-14.1211" x2="-412.1161" y2="-20.4643" gradientTransform="matrix(0.952 -0.3062 0.3062 0.952 445.3426 -10.2209)">
			<stop  offset="0" style="stop-color:#3FA9F5"/>
			<stop  offset="0.5109" style="stop-color:#40ABF4"/>
			<stop  offset="0.695" style="stop-color:#43B2F2"/>
			<stop  offset="0.8261" style="stop-color:#49BDEE"/>
			<stop  offset="0.9315" style="stop-color:#51CEE8"/>
			<stop  offset="1" style="stop-color:#59DEE2"/>
		</linearGradient>
		<path class="st9" d="M41,100c2,0.6,6.3,1.4,10.8-0.4c1.1-0.5,2-1,2.8-1.6"/>
	</g>
</g>
<g>
</g>
<g>
</g>
<g>
</g>
<g>
</g>
<g>
</g>
<g>
</g>
<g>
</g>
<g>
</g>
<g>
</g>
<g>
</g>
<g>
</g>
<g>
</g>
<g>
</g>
<g>
</g>
<g>
</g>
</svg>
