<?xml version="1.0" encoding="utf-8"?>
<!-- Generator: Adobe Illustrator 22.1.0, SVG Export Plug-In . SVG Version: 6.00 Build 0)  -->
<svg version="1.1" id="Capa_1" xmlns="http://www.w3.org/2000/svg" xmlns:xlink="http://www.w3.org/1999/xlink" x="0px" y="0px"
	 viewBox="0 0 150 60.1" style="enable-background:new 0 0 150 60.1;" xml:space="preserve">
<style type="text/css">
	.st0{fill:url(#SVGID_1_);}
	.st1{fill:url(#SVGID_2_);}
	.st2{fill:url(#SVGID_3_);}
	.st3{fill:url(#S_2_);}
	.st4{fill:url(#T_2_);}
	.st5{fill:url(#SVGID_4_);}
	.st6{fill:url(#SVGID_5_);}
	.st7{fill:url(#B_2_);}
	.st8{fill:url(#SVGID_6_);}
	.st9{fill:url(#SVGID_7_);}
	.st10{fill:url(#SVGID_8_);}
	.st11{fill:url(#SVGID_9_);}
	.st12{fill:url(#SVGID_10_);}
	.st13{fill:url(#SVGID_11_);}
	.st14{fill:url(#SVGID_12_);}
	.st15{fill:url(#SVGID_13_);}
	.st16{fill:url(#SVGID_14_);}
	.st17{fill:url(#SVGID_15_);}
	.st18{fill:url(#SVGID_16_);}
	.st19{display:none;fill:none;stroke:url(#SVGID_17_);stroke-width:3.7;stroke-miterlimit:10;}
</style>
<g>
	<linearGradient id="SVGID_1_" gradientUnits="userSpaceOnUse" x1="35.0728" y1="5" x2="35.0728" y2="23.9208">
		<stop  offset="0" style="stop-color:#3FA9F5"/>
		<stop  offset="0.5109" style="stop-color:#40ABF4"/>
		<stop  offset="0.695" style="stop-color:#43B2F2"/>
		<stop  offset="0.8261" style="stop-color:#49BDEE"/>
		<stop  offset="0.9315" style="stop-color:#51CEE8"/>
		<stop  offset="1" style="stop-color:#59DEE2"/>
	</linearGradient>
	<path class="st0" d="M29.4,13.6c-0.1,0.9-0.1,1.8,0.2,2.7c0.8,2.4,2.3,4,4.8,4.6c2.5,0.6,4.6-0.3,6.4-2.1c0.1-0.1,0.2-0.2,0.2-0.3
		c0.5-0.6,1.4-0.7,2-0.3c0.7,0.5,0.8,1.4,0.3,2.1c-0.8,1-1.7,1.9-2.9,2.5c-3.5,1.8-8,1.7-11.2-1.6c-1.5-1.5-2.4-3.3-2.7-5.5
		c-0.1-0.4,0-0.6,0.3-0.8C27.7,14.4,28.5,13.9,29.4,13.6z M28.8,13.3c0.5-0.2,0.8-0.5,1-1c1-2.9,4-5.4,8.3-4.1
		c1.2,0.4,2.2,1.2,3,2.2c0.4,0.5,1,0.7,1.7,0.5c0.6-0.2,0.9-0.7,0.9-1.4c0-0.5-0.2-0.8-0.5-1.1c-2.1-2.4-4.8-3.5-8-3.3
		c-3.9,0.3-6.6,2.4-8.1,6c-0.5,1.1-0.6,2.3-0.5,3.5C27.3,14.1,28,13.7,28.8,13.3z"/>
	<linearGradient id="SVGID_2_" gradientUnits="userSpaceOnUse" x1="47.3476" y1="9.9394" x2="47.3476" y2="23.9208">
		<stop  offset="0" style="stop-color:#3FA9F5"/>
		<stop  offset="0.5109" style="stop-color:#40ABF4"/>
		<stop  offset="0.695" style="stop-color:#43B2F2"/>
		<stop  offset="0.8261" style="stop-color:#49BDEE"/>
		<stop  offset="0.9315" style="stop-color:#51CEE8"/>
		<stop  offset="1" style="stop-color:#59DEE2"/>
	</linearGradient>
	<path class="st1" d="M44.2,13.6c0-0.8,0-1.5,0-2.3c0-0.8,0.4-1.1,1.1-1.1c0.2,0,0.5,0,0.7,0c0.3,0.1,0.6,0.2,0.7,0.6
		c0.1,0.2,0.1,0.2,0.3,0.1c0.6-0.5,1.3-0.8,2.1-0.9c0.7-0.1,1.2,0.3,1.2,1c0,0.3,0,0.5,0,0.8c0,0.5-0.3,0.9-0.9,1
		c-0.8,0.1-1.4,0.5-1.9,1.1c-0.5,0.5-0.6,1.2-0.6,1.8c0,0.5,0,1,0,1.6c0,0.2,0,0.3-0.2,0.2c-0.9-0.3-1.7-0.7-2.5-1.1
		c-0.2-0.1-0.1-0.2-0.1-0.3C44.2,15.1,44.2,14.3,44.2,13.6z M47.1,18.2c0-0.1,0-0.2-0.2-0.3c-0.9-0.3-1.7-0.7-2.5-1.1
		c-0.2-0.1-0.2-0.1-0.2,0.1c0,0.4,0,0.9,0,1.3c0,1.4,0,2.8,0,4.2c0,0.9,0.6,1.5,1.5,1.5c0.8,0,1.4-0.6,1.4-1.5c0-0.7,0-1.3,0-2
		C47.1,19.7,47.1,18.9,47.1,18.2z"/>
	<linearGradient id="SVGID_3_" gradientUnits="userSpaceOnUse" x1="57.2568" y1="9.8235" x2="57.2568" y2="28.0076">
		<stop  offset="0" style="stop-color:#3FA9F5"/>
		<stop  offset="0.5109" style="stop-color:#40ABF4"/>
		<stop  offset="0.695" style="stop-color:#43B2F2"/>
		<stop  offset="0.8261" style="stop-color:#49BDEE"/>
		<stop  offset="0.9315" style="stop-color:#51CEE8"/>
		<stop  offset="1" style="stop-color:#59DEE2"/>
	</linearGradient>
	<path class="st2" d="M61.3,16.3c-1,2.4-2,4.7-3,7.1c-0.5,1.3-1.1,2.5-1.6,3.8c-0.2,0.5-0.6,0.8-1.2,0.8c-0.6,0-1-0.2-1.3-0.7
		c-0.2-0.4-0.2-0.8,0-1.2c0.4-1,0.8-2.1,1.2-3.1c0.1-0.2,0.1-0.4,0-0.7c-0.6-1.4-1.1-2.8-1.7-4.2c-0.1-0.2,0-0.3,0.1-0.4
		c0.7-0.3,1.4-0.6,2.1-0.9c0.2-0.1,0.3,0,0.3,0.2c0.2,0.4,0.3,0.9,0.5,1.3c0.1,0.1,0.1,0.3,0.3,0.3c0.2,0,0.2-0.1,0.3-0.3
		c0.3-0.6,0.5-1.2,0.8-1.8c0.1-0.2,0.2-0.2,0.3-0.3C59.5,16.1,60.4,16.1,61.3,16.3z M51.2,11.7c0.7,1.8,1.4,3.6,2.2,5.5
		c0.1,0.2,0.1,0.2,0.3,0.1c0.7-0.4,1.5-0.7,2.2-0.9c0.2-0.1,0.2-0.1,0.1-0.3c-0.7-1.8-1.5-3.6-2.2-5.5c-0.2-0.6-0.7-0.8-1.1-0.8
		C51.5,9.8,50.9,10.8,51.2,11.7z M62.3,9.9c-0.6-0.2-1.3,0.1-1.6,0.7c-0.7,1.6-1.4,3.3-2.1,4.9c-0.1,0.2,0,0.2,0.2,0.2
		c0.8-0.1,1.7-0.1,2.5,0.1c0.2,0,0.2-0.1,0.3-0.2c0.5-1.3,1.1-2.6,1.6-3.9c0.1-0.2,0.1-0.4,0.1-0.5C63.4,10.6,62.9,10,62.3,9.9z"/>
	<linearGradient id="S_2_" gradientUnits="userSpaceOnUse" x1="68.1671" y1="9.5062" x2="68.1671" y2="23.9367">
		<stop  offset="0" style="stop-color:#3FA9F5"/>
		<stop  offset="0.5109" style="stop-color:#40ABF4"/>
		<stop  offset="0.695" style="stop-color:#43B2F2"/>
		<stop  offset="0.8261" style="stop-color:#49BDEE"/>
		<stop  offset="0.9315" style="stop-color:#51CEE8"/>
		<stop  offset="1" style="stop-color:#59DEE2"/>
	</linearGradient>
	<path id="S_1_" class="st3" d="M71.9,17c-1.2,0.5-2.4,0.7-3.6,0.8c-0.1,0-0.1,0-0.2,0c-0.6-0.2-1.1-0.3-1.6-0.5
		c-1.8-0.7-2.5-2.3-2.4-4c0.1-1.9,1.7-3.2,3.2-3.6c2.2-0.5,3.8,0.7,4.5,1.9c0.3,0.5,0.5,1,0.5,1.6c0,0.5-0.3,0.9-0.8,0.9
		c-0.4,0-0.8,0-1.2,0c-0.5,0-0.8-0.3-0.8-0.7c-0.1-0.6-0.5-1-1.2-1c-0.6,0-1.2,0.4-1.3,1c-0.1,0.6,0.1,1,0.6,1.3
		c0.6,0.4,1.3,0.5,2,0.7c0.9,0.3,1.6,0.7,2.2,1.4C71.8,16.8,71.9,16.9,71.9,17z M69.4,18.4c0.6,0.6,0.6,1.7,0,2.2
		c-0.5,0.5-1.1,0.6-1.7,0.4c-0.7-0.2-1.2-0.7-1.3-1.5c-0.1-0.5-0.4-0.9-1-0.9c-0.4,0-0.7,0-1.1,0c-0.5,0-0.8,0.4-0.8,0.9
		c0,0.3,0,0.5,0.1,0.8c0.5,1.7,1.5,2.9,3.2,3.4c1.7,0.5,3.3,0,4.5-1.3c1.4-1.4,1.5-3.3,0.8-4.9c0-0.1-0.1-0.2-0.2-0.2
		c-0.9,0.4-1.9,0.6-2.9,0.8C69.3,18.3,69.3,18.4,69.4,18.4z"/>
	<linearGradient id="T_2_" gradientUnits="userSpaceOnUse" x1="76.2682" y1="5.376" x2="76.2682" y2="23.8017">
		<stop  offset="0" style="stop-color:#3FA9F5"/>
		<stop  offset="0.5109" style="stop-color:#40ABF4"/>
		<stop  offset="0.695" style="stop-color:#43B2F2"/>
		<stop  offset="0.8261" style="stop-color:#49BDEE"/>
		<stop  offset="0.9315" style="stop-color:#51CEE8"/>
		<stop  offset="1" style="stop-color:#59DEE2"/>
	</linearGradient>
	<path id="T_1_" class="st4" d="M73.4,16.3c0-0.1,0-0.2,0-0.3c0-3.1,0-6.2,0-9.3c0-0.6,0.3-1.1,0.9-1.2C75,5.3,75.6,5.4,76,5.9
		c0.1,0.2,0.2,0.5,0.2,0.7c0,0.9,0,1.8,0,2.7c0,0.4,0,0.4,0.4,0.4c0.4,0,0.8,0,1.2,0c0.8,0,1.3,0.6,1.3,1.4c0,0.8-0.5,1.3-1.3,1.3
		c-0.4,0-0.9,0-1.3,0c-0.2,0-0.3,0.1-0.3,0.3c0,0.5,0,1.1,0,1.6c0,0.1-0.1,0.2-0.1,0.3c-0.7,0.5-1.5,0.9-2.2,1.4
		C73.7,16.1,73.6,16.2,73.4,16.3z M75.9,15.3c-0.8,0.5-1.6,1-2.3,1.5c-0.1,0-0.1,0.2-0.1,0.3c0,0.9,0,1.7,0,2.6
		c0,0.8,0.2,1.6,0.6,2.2c1,1.4,2.4,1.9,4,1.8c0.2,0,0.3-0.1,0.5-0.2c0.4-0.3,0.6-0.8,0.5-1.3c-0.1-0.5-0.5-0.9-1.1-1
		c-1.1-0.2-1.6-0.6-1.8-1.6c-0.1-0.4-0.1-0.9-0.1-1.3c0-1.1,0-2.2,0-3.3C76.1,15.2,76,15.3,75.9,15.3z"/>
	<linearGradient id="SVGID_4_" gradientUnits="userSpaceOnUse" x1="86.2018" y1="9.5041" x2="86.2018" y2="23.9131">
		<stop  offset="0" style="stop-color:#3FA9F5"/>
		<stop  offset="0.5109" style="stop-color:#40ABF4"/>
		<stop  offset="0.695" style="stop-color:#43B2F2"/>
		<stop  offset="0.8261" style="stop-color:#49BDEE"/>
		<stop  offset="0.9315" style="stop-color:#51CEE8"/>
		<stop  offset="1" style="stop-color:#59DEE2"/>
	</linearGradient>
	<path class="st5" d="M90.5,22.4c-0.8,0.7-1.8,1.1-2.8,1.4c-3.6,0.8-7.3-1.5-8.3-5.1c-0.3-1.2-0.3-2.4-0.1-3.6
		c0-0.2,0.1-0.3,0.3-0.2c0.8,0.2,1.5,0.5,2.3,0.7c0.2,0.1,0.1,0.1,0.1,0.3c-0.3,2,0.7,4,2.4,4.9c2.2,1,4.7,0,5.7-2.3
		c0.1-0.2,0.2-0.3,0.4-0.2c0.8,0.2,1.7,0.2,2.5,0.2c0.2,0,0.2,0.1,0.2,0.2c0,1.2,0,2.5,0,3.7c0,0.7-0.5,1.3-1.2,1.3
		C91.3,23.7,90.8,23.3,90.5,22.4z M93.1,15.1c-0.6-2.7-2.3-4.5-4.8-5.3c-2.5-0.8-4.9-0.3-6.9,1.6c-0.8,0.8-1.4,1.6-1.8,2.7
		c-0.1,0.2,0,0.3,0.2,0.3c0.7,0.2,1.4,0.4,2.1,0.7c0.2,0.1,0.3,0.1,0.4-0.2c0.5-1.3,2-2.7,4.2-2.7c1.6,0.1,3.1,1.1,3.7,2.7
		c0.3,0.8,0.4,1.6,0.2,2.4c0,0.1-0.1,0.2,0.1,0.2c0.9,0.1,1.7,0.2,2.6,0.2c0.1,0,0.2-0.1,0.2-0.2c0-0.3,0-0.5,0-0.9
		C93.3,16.3,93.3,15.7,93.1,15.1z"/>
	<linearGradient id="SVGID_5_" gradientUnits="userSpaceOnUse" x1="95.3176" y1="5.3585" x2="95.3176" y2="23.57">
		<stop  offset="0" style="stop-color:#3FA9F5"/>
		<stop  offset="0.5109" style="stop-color:#40ABF4"/>
		<stop  offset="0.695" style="stop-color:#43B2F2"/>
		<stop  offset="0.8261" style="stop-color:#49BDEE"/>
		<stop  offset="0.9315" style="stop-color:#51CEE8"/>
		<stop  offset="1" style="stop-color:#59DEE2"/>
	</linearGradient>
	<path class="st6" d="M93.9,12.1c0-1.8,0-3.5,0-5.3c0-0.7,0.4-1.2,1-1.4c0.6-0.2,1.2,0.1,1.6,0.7c0.1,0.3,0.2,0.5,0.2,0.8
		c0,3.3,0,6.5,0,9.8c0,0.2-0.1,0.3-0.2,0.3c-0.7,0.3-1.5,0.5-2.3,0.7c-0.2,0-0.3,0-0.3-0.2C93.9,15.7,93.9,13.9,93.9,12.1z
		 M96.7,19.9c0-0.8,0-1.5,0-2.3c0-0.2,0-0.3-0.2-0.2c-0.8,0.3-1.5,0.5-2.4,0.7c-0.1,0-0.2,0.1-0.2,0.2c0,1.3,0,2.5,0,3.8
		c0,0.7,0.6,1.3,1.3,1.3c0.8,0,1.4-0.5,1.4-1.3C96.7,21.5,96.7,21.5,96.7,19.9z"/>
	<linearGradient id="B_2_" gradientUnits="userSpaceOnUse" x1="42.8352" y1="25.3027" x2="42.8352" y2="43.5198">
		<stop  offset="0" style="stop-color:#3FA9F5"/>
		<stop  offset="0.5109" style="stop-color:#40ABF4"/>
		<stop  offset="0.695" style="stop-color:#43B2F2"/>
		<stop  offset="0.8261" style="stop-color:#49BDEE"/>
		<stop  offset="0.9315" style="stop-color:#51CEE8"/>
		<stop  offset="1" style="stop-color:#59DEE2"/>
	</linearGradient>
	<path id="B_1_" class="st7" d="M45.8,37.2c-0.5-1.4-1.6-1.8-2.9-1.9c-0.7-0.1-1.4,0-2.1,0c-0.7,0-1,0.3-1,1c0,0.3,0,0.7,0,1
		c0,0.2,0,0.2-0.2,0.1c-0.9-0.3-1.7-0.6-2.5-1c-0.1-0.1-0.2-0.2-0.2-0.3c0-3,0-5.9,0-8.9c0-1.1,0.8-1.9,1.9-1.9c1.2,0,2.4,0,3.6,0
		c1.8,0,3.4,0.7,4.6,2.2c1.4,1.7,1.2,4.5-0.4,6c-0.2,0.2-0.2,0.2,0,0.4c0.7,0.5,1.2,1.2,1.6,2c0.1,0.2,0.1,0.3-0.1,0.4
		C47.3,36.5,46.6,36.8,45.8,37.2z M36.9,37.2c0,1.6,0,3.2,0,4.8c0,1,0.5,1.5,1.5,1.5c1.4,0,2.8,0,4.3,0c0.5,0,1,0,1.5-0.1
		c3.2-0.5,5.1-3.4,4.4-6.5c0-0.2-0.1-0.2-0.3-0.2c-0.8,0.2-1.5,0.6-2.2,0.9c-0.2,0.1-0.2,0.2-0.2,0.3c0,0.4,0,0.7-0.1,1
		c-0.3,1-1.1,1.4-2,1.7c-1.1,0.3-2.2,0.2-3.3,0.2c-0.4,0-0.7-0.4-0.8-0.9c0-0.6,0-1.2,0-1.7c0-0.2,0-0.2-0.2-0.3
		c-0.5-0.1-1.1-0.3-1.6-0.6c-0.3-0.2-0.7-0.3-1-0.5C36.9,37,36.9,37.1,36.9,37.2z M39.8,31.7c0,0.6,0.3,0.9,1,0.9c0.5,0,1.1,0,1.6,0
		c0.7,0,1.4-0.2,2-0.7c1-0.8,1.1-2.4,0.1-3.2c-0.4-0.4-0.9-0.6-1.5-0.7c-0.8-0.1-1.6,0-2.3-0.1c-0.6,0-0.9,0.3-0.9,0.9
		c0,0.5,0,0.9,0,1.4C39.8,30.8,39.8,31.2,39.8,31.7z"/>
	<linearGradient id="SVGID_6_" gradientUnits="userSpaceOnUse" x1="56.5573" y1="29.0646" x2="56.5573" y2="43.5194">
		<stop  offset="0" style="stop-color:#3FA9F5"/>
		<stop  offset="0.5109" style="stop-color:#40ABF4"/>
		<stop  offset="0.695" style="stop-color:#43B2F2"/>
		<stop  offset="0.8261" style="stop-color:#49BDEE"/>
		<stop  offset="0.9315" style="stop-color:#51CEE8"/>
		<stop  offset="1" style="stop-color:#59DEE2"/>
	</linearGradient>
	<path class="st8" d="M49.5,35.7c0-0.7,0.1-1.3,0.4-1.9c1.1-2.5,2.9-4.2,5.7-4.6c2.6-0.4,4.8,0.6,6.5,2.6c1,1.2,1.6,2.6,1.6,4.2
		c0,0.9-0.6,1.4-1.4,1.4c-1.9,0-3.8,0-5.7,0c-0.1,0-0.3-0.1-0.4-0.1c-0.7-0.4-1.4-0.9-2.1-1.3c-1.3-0.7-2.8-0.7-4.2-0.4
		C49.7,35.6,49.6,35.7,49.5,35.7z M56.6,34.8c1.2,0,2.4,0,3.5,0c0.4,0,0.6-0.2,0.4-0.6c-0.8-1.5-2.2-2.3-3.9-2.3
		c-1.7,0-3,0.8-3.9,2.3c-0.3,0.5-0.1,0.6,0.4,0.6C54.3,34.8,55.4,34.8,56.6,34.8z M59.8,39.6c-0.1,0-0.2,0-0.2,0.1
		c-1,0.9-2.1,1.1-3.4,1c-1.6-0.1-3.1-1.3-3.6-2.8c-0.1-0.3,0-0.5,0.3-0.5c0.2,0,0.5,0,0.7,0c0.6,0,1.2,0,1.8,0
		c-0.7-0.6-1.4-1-2.3-1.3c-1.2-0.4-2.3-0.2-3.5,0.1c-0.1,0-0.1,0.1-0.1,0.2c0,0.3,0,0.6,0.1,1c0.7,4.6,6,8.1,11,5
		c0.8-0.5,1.5-1.2,2-2C61.5,40.1,60.7,39.9,59.8,39.6z M62.6,39.9c0.2,0,0.2-0.1,0.2-0.2c0.2-0.6-0.2-1.3-0.7-1.6
		c-0.6-0.3-1.3-0.1-1.7,0.4c-0.1,0.2-0.3,0.4-0.4,0.7C60.9,39.4,61.7,39.7,62.6,39.9z"/>
	<linearGradient id="SVGID_7_" gradientUnits="userSpaceOnUse" x1="71.4211" y1="29.1238" x2="71.4211" y2="43.5194">
		<stop  offset="0" style="stop-color:#3FA9F5"/>
		<stop  offset="0.5109" style="stop-color:#40ABF4"/>
		<stop  offset="0.695" style="stop-color:#43B2F2"/>
		<stop  offset="0.8261" style="stop-color:#49BDEE"/>
		<stop  offset="0.9315" style="stop-color:#51CEE8"/>
		<stop  offset="1" style="stop-color:#59DEE2"/>
	</linearGradient>
	<path class="st9" d="M68.5,39.5c-0.6,0.2-1.2,0.3-1.8,0.4c-0.4,0-0.7,0-1.1,0.1c-0.2,0-0.3-0.1-0.3-0.2c-1.3-2.4-1.1-5.7,0.8-8.1
		c2.8-3.4,7.4-3.1,9.9-0.9c1,0.9,1.8,1.9,2.2,3.1c0.1,0.2,0.1,0.2-0.1,0.3c-0.9,0.2-1.7,0.5-2.4,1c-0.7-1.9-1.9-3.3-4.1-3.3
		c-1.8,0-3.2,0.8-3.9,2.4C66.7,36.2,67.1,37.9,68.5,39.5z M76.3,42.9c0.4,0.3,0.9,0.4,1.4,0.2c0.5-0.2,0.8-0.7,0.8-1.3c0-2,0-4,0-6
		c0-0.3-0.1-0.6-0.1-1c0-0.2-0.1-0.2-0.2-0.2c-0.8,0.2-1.6,0.5-2.3,1c-0.1,0.1-0.2,0.2-0.1,0.3c0,0.5,0,0.9-0.1,1.4
		c-0.7,2.9-3.8,4.5-6.5,2.7c-0.1-0.1-0.2-0.1-0.4,0c-0.5,0.2-1.1,0.3-1.7,0.3c-0.5,0-0.9,0.1-1.4,0.1c2.2,3.3,7.1,4.1,10.1,1.6
		C75.8,42.4,76,42.7,76.3,42.9z"/>
	<linearGradient id="SVGID_8_" gradientUnits="userSpaceOnUse" x1="86.186" y1="29.1088" x2="86.186" y2="43.5198">
		<stop  offset="0" style="stop-color:#3FA9F5"/>
		<stop  offset="0.5109" style="stop-color:#40ABF4"/>
		<stop  offset="0.695" style="stop-color:#43B2F2"/>
		<stop  offset="0.8261" style="stop-color:#49BDEE"/>
		<stop  offset="0.9315" style="stop-color:#51CEE8"/>
		<stop  offset="1" style="stop-color:#59DEE2"/>
	</linearGradient>
	<path class="st10" d="M86.6,43.5c-3.1,0-5.9-1.9-7-4.7c-0.5-1.3-0.5-2.7-0.3-4c0-0.1,0.1-0.2,0.3-0.2c0.8,0,1.6,0.1,2.4,0.3
		c0.2,0,0.2,0.1,0.1,0.3c-0.9,3.1,1.6,6,4.8,5.7c1.5-0.1,2.6-0.7,3.5-2c0.2-0.3,0.4-0.4,0.7-0.4c0.4,0,0.9,0,1.3,0
		c0.6,0,1,0.6,0.7,1.2c-1.2,2.2-3,3.6-5.5,3.9C87.2,43.5,86.9,43.5,86.6,43.5z M85,29.3c-2.6,0.6-4.4,2.1-5.4,4.5
		c-0.1,0.2-0.1,0.3,0.2,0.3c0.8,0,1.6,0.1,2.3,0.3c0.2,0.1,0.3,0,0.4-0.2c1-1.5,2.7-2.6,4.9-2.2c1.2,0.2,2.1,0.9,2.8,1.9
		c0.2,0.4,0.5,0.6,1,0.5c0.4,0,0.8,0,1.1,0c0.6,0,1-0.6,0.7-1.1c-0.1-0.2-0.2-0.5-0.4-0.7c-1.5-2.3-3.6-3.3-6.2-3.4
		C86,29.1,85.5,29.2,85,29.3z"/>
	<linearGradient id="SVGID_9_" gradientUnits="userSpaceOnUse" x1="100.0654" y1="25.2862" x2="100.0654" y2="43.5218">
		<stop  offset="0" style="stop-color:#3FA9F5"/>
		<stop  offset="0.5109" style="stop-color:#40ABF4"/>
		<stop  offset="0.695" style="stop-color:#43B2F2"/>
		<stop  offset="0.8261" style="stop-color:#49BDEE"/>
		<stop  offset="0.9315" style="stop-color:#51CEE8"/>
		<stop  offset="1" style="stop-color:#59DEE2"/>
	</linearGradient>
	<path class="st11" d="M93.9,32.1c0-1.8,0-3.6,0-5.4c0-0.6,0.2-1.1,0.8-1.3c0.5-0.3,1.1-0.2,1.5,0.2c0.3,0.3,0.5,0.7,0.5,1.1
		c0,1.1,0,2.2,0,3.3c0,0.4,0.2,0.5,0.6,0.3c2.1-1.3,5-1,6.9,0.8c1.4,1.3,2,2.8,2.1,4.7c0,0.2,0,0.3-0.2,0.4c-0.7,0.4-1.5,0.7-2.3,1
		c-0.2,0.1-0.3,0-0.3-0.2c0-0.7,0.1-1.4-0.1-2.2c-0.3-1.3-1.5-2.5-2.9-2.6c-1.5-0.1-2.9,0.6-3.4,1.9c-0.2,0.4-0.2,0.9-0.2,1.4
		c0,0.7,0,1.4,0,2.1c0,0.2-0.1,0.3-0.3,0.3c-0.8,0-1.6-0.1-2.3-0.1c-0.3,0-0.2-0.2-0.2-0.3C93.9,35.8,93.9,33.9,93.9,32.1z
		 M106.1,36.7c-0.8,0.4-1.6,0.8-2.5,1c-0.1,0-0.2,0.1-0.2,0.2c0,1.4,0,2.8,0,4.1c0,0.8,0.7,1.4,1.5,1.4c0.7,0,1.3-0.7,1.3-1.5
		c0-1.7,0-3.4,0-5.1C106.2,36.8,106.2,36.8,106.1,36.7C106.2,36.7,106.1,36.7,106.1,36.7z M96.8,38.6c0-0.2,0-0.2-0.2-0.2
		c-0.8,0-1.6,0-2.4-0.1c-0.2,0-0.3,0.1-0.3,0.3c0,1.2,0,2.3,0,3.5c0,0.9,0.6,1.4,1.4,1.5c0.8,0,1.4-0.6,1.4-1.4c0-0.6,0-1.1,0-1.7
		C96.8,39.8,96.8,39.2,96.8,38.6z"/>
	<g id="FAV">
		
			<linearGradient id="SVGID_10_" gradientUnits="userSpaceOnUse" x1="1388.0477" y1="-362.5442" x2="1388.0477" y2="-363.4245" gradientTransform="matrix(-0.7857 0.6187 0.6187 0.7857 1403.9424 -524.8705)">
			<stop  offset="0" style="stop-color:#3FA9F5"/>
			<stop  offset="0.5109" style="stop-color:#40ABF4"/>
			<stop  offset="0.695" style="stop-color:#43B2F2"/>
			<stop  offset="0.8261" style="stop-color:#49BDEE"/>
			<stop  offset="0.9315" style="stop-color:#51CEE8"/>
			<stop  offset="1" style="stop-color:#59DEE2"/>
		</linearGradient>
		<path class="st12" d="M89.7,47.8C89.7,47.8,89.7,47.8,89.7,47.8c0.1,0.3,0,0.5,0,0.5c-0.1,0.2-0.3,0.5-0.4,0.6S89.1,49,89,49.1
			c-0.1,0-0.9,0.4-1,0.4c0,0,0,0,0,0c0,0,0,0,0,0c0,0,0-0.2,0-0.2c0,0,0.1,0,0.1,0c0.1,0,0.3-0.1,0.9-0.4c0.3-0.2,0.4-0.4,0.4-0.6
			c0-0.2,0-0.4,0-0.4c0,0,0,0,0,0"/>
		<linearGradient id="SVGID_11_" gradientUnits="userSpaceOnUse" x1="91.7674" y1="49.018" x2="91.7674" y2="47.4777">
			<stop  offset="0" style="stop-color:#3FA9F5"/>
			<stop  offset="0.5109" style="stop-color:#40ABF4"/>
			<stop  offset="0.695" style="stop-color:#43B2F2"/>
			<stop  offset="0.8261" style="stop-color:#49BDEE"/>
			<stop  offset="0.9315" style="stop-color:#51CEE8"/>
			<stop  offset="1" style="stop-color:#59DEE2"/>
		</linearGradient>
		<path class="st13" d="M94.1,47.7c0.1,0,0.1,0,0.1,0.1c0.1,0.1,0.1,0.1,0,0.2c-0.5,0.3-0.9,0.5-1.3,0.7c-0.4,0.2-0.8,0.3-1.1,0.3
			l-0.4,0c-0.3,0-0.5-0.1-0.7-0.2c-0.2-0.1-0.3-0.3-0.4-0.5c-0.1-0.2-0.1-0.4-0.1-0.5C90.1,47.9,90,48,89.8,48c-0.2,0-0.3,0-0.5-0.1
			c-0.1,0-0.1-0.1,0-0.2c0.1-0.1,0.1-0.1,0.2,0c0.1,0.1,0.2,0.1,0.3,0.1c0.1,0,0.3-0.1,0.4-0.1c0.2-0.1,0.3-0.2,0.4-0.1
			c0.1,0,0.1,0.1,0.1,0.1c0,0,0,0.1,0,0.3c0,0.2,0.1,0.4,0.3,0.6c0.2,0.2,0.4,0.2,0.7,0.2c0.3,0,0.6-0.1,1-0.3
			C93.1,48.4,93.5,48.1,94.1,47.7z"/>
		<linearGradient id="SVGID_12_" gradientUnits="userSpaceOnUse" x1="95.8233" y1="49.7971" x2="95.8233" y2="47.6194">
			<stop  offset="0" style="stop-color:#3FA9F5"/>
			<stop  offset="0.5109" style="stop-color:#40ABF4"/>
			<stop  offset="0.695" style="stop-color:#43B2F2"/>
			<stop  offset="0.8261" style="stop-color:#49BDEE"/>
			<stop  offset="0.9315" style="stop-color:#51CEE8"/>
			<stop  offset="1" style="stop-color:#59DEE2"/>
		</linearGradient>
		<path class="st14" d="M98,47.7c0.1-0.1,0.1-0.1,0.2,0c0,0.1,0,0.1,0,0.2c-0.4,0.4-0.7,0.7-1.1,0.9c-0.4,0.3-0.8,0.5-1.2,0.7
			c-0.2,0.1-0.4,0.2-0.6,0.2c-0.2,0.1-0.4,0.1-0.5,0.1h0h0h-0.2c-0.2,0-0.3,0-0.4-0.1c-0.3-0.1-0.5-0.3-0.6-0.6
			c-0.1-0.5,0-1,0.4-1.3c0.3-0.2,0.6-0.3,0.9-0.2c0,0,0,0,0,0c0,0,0,0,0,0c0.1,0.1,0.2,0.2,0.2,0.4c0,0.1-0.1,0.3-0.2,0.4
			c-0.1,0.1-0.2,0.2-0.3,0.3c-0.1,0.1-0.2,0.1-0.4,0.2c-0.1,0-0.2,0.1-0.3,0.1c0,0,0,0.1,0,0.1c0.1,0.2,0.1,0.3,0.3,0.4
			c0.1,0.1,0.3,0.1,0.5,0.1c0.4,0,0.9-0.2,1.5-0.5C96.8,48.8,97.4,48.3,98,47.7z M94.8,48c0-0.1,0-0.1-0.1-0.1c-0.1,0-0.1,0-0.2,0
			c-0.1,0-0.2,0.1-0.3,0.2c-0.1,0-0.1,0.1-0.2,0.2c-0.1,0.1-0.1,0.2-0.1,0.4c0.2,0,0.3-0.1,0.6-0.2C94.7,48.4,94.8,48.2,94.8,48z"/>
		<linearGradient id="SVGID_13_" gradientUnits="userSpaceOnUse" x1="99.7407" y1="50.122" x2="99.7407" y2="46.7517">
			<stop  offset="0" style="stop-color:#3FA9F5"/>
			<stop  offset="0.5109" style="stop-color:#40ABF4"/>
			<stop  offset="0.695" style="stop-color:#43B2F2"/>
			<stop  offset="0.8261" style="stop-color:#49BDEE"/>
			<stop  offset="0.9315" style="stop-color:#51CEE8"/>
			<stop  offset="1" style="stop-color:#59DEE2"/>
		</linearGradient>
		<path class="st15" d="M101.7,47.7C101.8,47.7,101.8,47.7,101.7,47.7c0.1,0,0.1,0,0.1,0c0,0,0,0,0,0.1c0,0,0,0.1,0,0.1
			c0,0-0.1,0-0.1,0c-0.3,0-0.9,0.1-1,0.1c-0.1,0-0.5,0.1-1,0.3c-0.4,0.1-0.7,0.3-1,0.4c0,0,0.3,0.5,0.1,0.9c0,0.1-0.2,0.3-0.5,0.4
			c-0.1,0-0.2,0-0.4,0c-0.1,0-0.2,0-0.2,0c0,0,0,0,0,0c0,0-0.1,0-0.1-0.1c0,0-0.1-0.1-0.1-0.1c-0.1-0.1,0-0.3,0.1-0.4
			c0.1-0.1,0.1-0.2,0.2-0.3c0.1-0.1,0.2-0.3,0.5-0.4c0-0.1-0.1-0.2-0.1-0.3c-0.1-0.2-0.1-0.2-0.1-0.3c-0.1-0.3-0.1-0.5,0-0.8
			c0.1-0.2,0.3-0.4,0.5-0.5c0.1,0,0.2-0.1,0.3-0.1c0.2,0,0.3,0,0.3,0.1c0,0.1,0,0.1,0,0.2c0,0.1-0.2,0.3-0.4,0.4
			c-0.2,0.2-0.4,0.3-0.5,0.3c0,0.1,0,0.2,0.1,0.2c0.1,0.2,0.1,0.3,0.2,0.5c0.3-0.1,0.5-0.2,0.7-0.3C99.4,48.3,100.7,47.7,101.7,47.7
			z M98,49.6c0,0.1,0,0.2,0,0.3c0,0,0.1,0.1,0.2,0c0.2-0.1,0.3-0.2,0.3-0.3c0-0.1,0-0.2,0-0.3c0-0.1,0-0.2-0.1-0.4
			C98.2,49.2,98,49.4,98,49.6z M98.7,47.4c0.1-0.1,0.2-0.2,0.3-0.3c0.1-0.1,0.1-0.1,0.1-0.1H99c-0.1,0-0.2,0-0.2,0.1
			c-0.2,0.1-0.3,0.3-0.3,0.5C98.6,47.5,98.6,47.4,98.7,47.4z"/>
		<linearGradient id="SVGID_14_" gradientUnits="userSpaceOnUse" x1="103.5507" y1="49.3098" x2="103.5507" y2="46.9655">
			<stop  offset="0" style="stop-color:#3FA9F5"/>
			<stop  offset="0.5109" style="stop-color:#40ABF4"/>
			<stop  offset="0.695" style="stop-color:#43B2F2"/>
			<stop  offset="0.8261" style="stop-color:#49BDEE"/>
			<stop  offset="0.9315" style="stop-color:#51CEE8"/>
			<stop  offset="1" style="stop-color:#59DEE2"/>
		</linearGradient>
		<path class="st16" d="M102.3,48.1c0.1,0.1,0.1,0.2,0.1,0.4c0,0.3-0.1,0.5-0.3,0.7l-0.2,0.2h-0.1c0,0-0.1,0-0.1,0h0
			c-0.1,0-0.2-0.1-0.3-0.2c-0.2-0.2-0.2-0.4-0.1-0.7c0.1-0.3,0.2-0.6,0.4-0.6c0.2-0.1,0.3-0.1,0.3-0.1c0,0,0,0,0.1,0
			c0,0,0.1,0,0.4,0.1c0.2,0.1,0.5,0.2,0.9,0.3c0.3,0.1,0.8,0.1,1.2,0.1c0.7-0.1,1.1-0.7,1.3-0.9c0.1-0.2,0.1-0.2,0.1-0.2
			c0,0,0,0.1,0,0.1c0,0.1,0,0.1,0,0.1c0,0.1-0.1,0.2-0.1,0.3c-0.1,0.1-0.1,0.2-0.3,0.3c-0.1,0.1-0.2,0.2-0.4,0.3
			c-0.1,0.1-0.3,0.1-0.3,0.1c0,0,0,0,0,0c0,0-0.8,0.2-1.5,0c0,0-0.1,0-0.1,0c-0.1,0-0.2-0.1-0.4-0.1
			C102.6,48.1,102.4,48.1,102.3,48.1z M102,49c0.2-0.2,0.2-0.3,0.2-0.5c0-0.2-0.1-0.3-0.2-0.5c0,0-0.1,0.1-0.2,0.1
			c-0.1,0.1-0.1,0.2-0.2,0.4c0,0.1,0,0.3,0,0.3c0,0.1,0,0.1,0.1,0.2c0,0,0.1,0.1,0.1,0.1C101.9,49,101.9,49,102,49z"/>
		<linearGradient id="SVGID_15_" gradientUnits="userSpaceOnUse" x1="108.2613" y1="48.9579" x2="108.2613" y2="46.7517">
			<stop  offset="0" style="stop-color:#3FA9F5"/>
			<stop  offset="0.5109" style="stop-color:#40ABF4"/>
			<stop  offset="0.695" style="stop-color:#43B2F2"/>
			<stop  offset="0.8261" style="stop-color:#49BDEE"/>
			<stop  offset="0.9315" style="stop-color:#51CEE8"/>
			<stop  offset="1" style="stop-color:#59DEE2"/>
		</linearGradient>
		<path class="st17" d="M110.6,47.1c0.1-0.1,0.1,0,0.1,0.1c0.1,0.1,0.1,0.2,0,0.2c-0.5,0.4-0.9,0.8-1.3,1c-0.4,0.2-0.8,0.4-1.1,0.5
			h0c0,0,0,0-0.1,0h-0.3c-0.3,0-0.5-0.1-0.7-0.3c-0.2-0.2-0.3-0.4-0.4-0.7c-0.1-0.3-0.1-0.5-0.1-0.7c-0.1,0.1-0.3,0.1-0.3,0.2
			c0,0-0.1,0-0.2,0c-0.1,0-0.2,0-0.3-0.1c-0.1,0-0.1-0.1-0.2-0.1c0,0,0,0,0-0.1c0,0,0-0.1,0-0.1c0-0.1,0.1-0.1,0.1-0.1
			c0.1,0,0.1,0.1,0.1,0.1c0,0,0,0,0.1,0.1c0.1,0,0.1,0.1,0.2,0c0.2,0,0.3-0.1,0.4-0.2c0.2-0.2,0.3-0.2,0.4-0.2
			c0.1,0.1,0.1,0.1,0.1,0.2c0,0,0,0.2,0,0.5c0,0.3,0.1,0.6,0.3,0.8c0.2,0.2,0.4,0.3,0.7,0.3c0.3-0.1,0.6-0.2,1-0.4
			C109.5,48,110,47.7,110.6,47.1z"/>
		<linearGradient id="SVGID_16_" gradientUnits="userSpaceOnUse" x1="113.1124" y1="57.7833" x2="113.1124" y2="41.8563">
			<stop  offset="0" style="stop-color:#3FA9F5"/>
			<stop  offset="0.5109" style="stop-color:#40ABF4"/>
			<stop  offset="0.695" style="stop-color:#43B2F2"/>
			<stop  offset="0.8261" style="stop-color:#49BDEE"/>
			<stop  offset="0.9315" style="stop-color:#51CEE8"/>
			<stop  offset="1" style="stop-color:#59DEE2"/>
		</linearGradient>
		<path class="st18" d="M111.2,46.2c-0.1,0.6-0.2,1.3-0.3,2.1c-0.1,0.8-0.1,1.7-0.1,2.6c0,1,0.1,2,0.3,3.1c0.2,1.1,0.4,2.3,0.8,3.6
			c0,0.1,0,0.1,0,0.1c0,0-0.1,0.1-0.1,0.1c-0.2,0-0.3-0.1-0.4-0.3c-0.3-1.1-0.5-2.2-0.7-3.3c-0.2-1.1-0.3-2.2-0.3-3.2
			c0-0.8,0-1.7,0-2.5c0.1-0.8,0.2-1.6,0.3-2.4c0.2-1.2,0.5-2.2,0.8-2.9c-0.3,0-0.5,0-0.8,0c-0.3,0-0.5,0-0.8,0c-1,0-1.9,0.2-2.8,0.4
			c-0.9,0.2-1.7,0.6-2.3,0.9c-0.1,0-0.1,0-0.2-0.1c0-0.1,0-0.1,0-0.2c0.6-0.4,1.4-0.7,2.4-0.9S109,43,110,43c0.3,0,0.6,0,0.8,0
			c0.3,0,0.5,0,0.8,0.1c0.1-0.3,0.2-0.6,0.3-0.7c0.1-0.2,0.1-0.3,0.1-0.3l0.1-0.1c0,0,0.1,0,0.1-0.1c0.1,0,0.1,0,0.1,0
			c0.1,0.1,0.1,0.1,0,0.2v0c0,0.1-0.1,0.2-0.1,0.2c-0.1,0.2-0.2,0.4-0.3,0.7c1,0.1,1.7,0.4,2.1,0.8c0.2,0.1,0.3,0.4,0.4,0.6
			c0.5-0.1,1.1-0.2,1.7-0.2c1.1-0.1,1.9-0.1,2.6-0.2c0.7-0.1,1.2-0.2,1.6-0.3v0c0.3-0.1,0.5-0.2,0.6-0.4c0.1-0.2,0.1-0.3,0.1-0.4
			c0-0.1,0-0.1,0-0.1c0,0,0-0.1,0.1-0.1c0.1,0,0.2,0,0.2,0.1c0.1,0.1,0.1,0.1,0.1,0.2c-0.1,0.2-0.2,0.4-0.4,0.6
			c-0.2,0.2-0.5,0.3-0.9,0.4c-0.4,0.1-0.9,0.2-1.5,0.2c-0.6,0.1-1.4,0.1-2.4,0.2c-0.4,0-0.7,0-1,0.1c-0.3,0-0.5,0.1-0.7,0.1
			c0,0.2-0.1,0.5-0.2,0.8c-0.1,0.3-0.3,0.4-0.5,0.5c-0.2,0.1-0.3,0.2-0.4,0.2c-0.1,0-0.2-0.1-0.3-0.2c-0.1-0.1-0.1-0.4,0.1-0.6
			c0.2-0.3,0.5-0.6,0.9-0.7c0,0,0.1,0,0.1-0.1c0.1,0,0.1,0,0.1-0.1c0-0.2-0.1-0.3-0.3-0.5c-0.4-0.4-1.1-0.6-2.1-0.8
			c-0.1,0.3-0.3,0.8-0.4,1.2C111.4,45,111.3,45.6,111.2,46.2z M114.1,45.4c0.1-0.2,0.2-0.4,0.2-0.6c-0.3,0.1-0.5,0.2-0.6,0.3
			c-0.1,0.1-0.2,0.2-0.3,0.4c-0.1,0.1-0.1,0.2-0.1,0.3c0,0.1,0,0.1,0,0.1c0,0,0.1,0.1,0.1,0.1c0.1,0,0.2,0,0.3-0.1
			C113.9,45.7,114,45.6,114.1,45.4z"/>
		
			<linearGradient id="SVGID_17_" gradientUnits="userSpaceOnUse" x1="-373.2912" y1="-53.2837" x2="-373.2912" y2="-57.7424" gradientTransform="matrix(0.952 -0.3062 0.3062 0.952 459.1689 -12.076)">
			<stop  offset="0" style="stop-color:#3FA9F5"/>
			<stop  offset="0.5109" style="stop-color:#40ABF4"/>
			<stop  offset="0.695" style="stop-color:#43B2F2"/>
			<stop  offset="0.8261" style="stop-color:#49BDEE"/>
			<stop  offset="0.9315" style="stop-color:#51CEE8"/>
			<stop  offset="1" style="stop-color:#59DEE2"/>
		</linearGradient>
		<path class="st19" d="M84.4,49.4c0.7,0.2,2.3,0.5,3.9-0.1c0.4-0.2,0.7-0.4,1-0.6"/>
	</g>
</g>
<g>
</g>
<g>
</g>
<g>
</g>
<g>
</g>
<g>
</g>
<g>
</g>
<g>
</g>
<g>
</g>
<g>
</g>
<g>
</g>
<g>
</g>
<g>
</g>
<g>
</g>
<g>
</g>
<g>
</g>
</svg>
