<?xml version="1.0" encoding="utf-8"?>
<!-- Generator: Adobe Illustrator 22.1.0, SVG Export Plug-In . SVG Version: 6.00 Build 0)  -->
<svg version="1.1" baseProfile="basic" id="Capa_1" xmlns="http://www.w3.org/2000/svg" xmlns:xlink="http://www.w3.org/1999/xlink"
	 x="0px" y="0px" viewBox="0 0 148 150" xml:space="preserve">
<style type="text/css">
	.st0{fill-rule:evenodd;clip-rule:evenodd;fill:#FFE600;}
	.st1{fill-rule:evenodd;clip-rule:evenodd;fill:#91BD4C;}
	.st2{fill-rule:evenodd;clip-rule:evenodd;fill:#386DAF;}
	.st3{fill-rule:evenodd;clip-rule:evenodd;fill:#B5D8F0;}
</style>
<g>
	<path class="st0" d="M61,63.4c3.9-0.1,6.9-3.4,6.8-7.3c-0.1-3.9-3.4-6.9-7.3-6.8c-3.9,0.1-6.9,3.4-6.8,7.3
		C53.9,60.5,57.1,63.6,61,63.4z"/>
	<g>
		<path class="st1" d="M78.7,84C53.5,82.2,18.1,55.1,1,86c18.4-12.3,37.9,1.3,56.7,7.6"/>
		<path class="st2" d="M115,81.8C81.5,96.1,37.7,59.4,12.8,93.7c27.8-13.8,54.7,9.3,84,6.7c15.5-1.3,22.6-10.3,28.1-24.9
			C123.2,77.2,116.7,81,115,81.8z"/>
		<path class="st3" d="M130.1,79.1c-25.9-22.7-56,1.9-80.5,12.2c24.4-4.8,46.9-11.4,70.8,0.5c12.9,6,28-0.9,26.5-15.8
			C141,84.4,134.9,83.4,130.1,79.1z"/>
	</g>
</g>
</svg>
