<?xml version="1.0" encoding="utf-8"?>
<!-- Generator: Adobe Illustrator 22.1.0, SVG Export Plug-In . SVG Version: 6.00 Build 0)  -->
<svg version="1.1" baseProfile="basic" id="Capa_1" xmlns="http://www.w3.org/2000/svg" xmlns:xlink="http://www.w3.org/1999/xlink"
	 x="0px" y="0px" viewBox="0 0 150 60" xml:space="preserve">
<style type="text/css">
	.st0{fill:#386DAF;}
	.st1{fill-rule:evenodd;clip-rule:evenodd;fill:#FFE600;}
	.st2{fill-rule:evenodd;clip-rule:evenodd;fill:#91BD4C;}
	.st3{fill-rule:evenodd;clip-rule:evenodd;fill:#386DAF;}
	.st4{fill-rule:evenodd;clip-rule:evenodd;fill:#B5D8F0;}
</style>
<g>
	<g>
		<path class="st0" d="M25.4,49.8c-0.5-0.3-0.9-0.4-1.4-0.4c-1.2,0-2,0.9-2,2.2c0,0.6,0.2,1.1,0.6,1.6c0.4,0.4,0.9,0.7,1.5,0.7
			c0.6,0,1-0.1,1.4-0.4l0.2,0.4c-0.5,0.3-1,0.5-1.6,0.5c-0.7,0-1.4-0.3-1.8-0.8c-0.5-0.5-0.7-1.1-0.7-1.9c0-0.7,0.3-1.4,0.8-1.9
			c0.5-0.5,1.1-0.7,1.8-0.7c0.5,0,1,0.1,1.5,0.4L25.4,49.8z"/>
		<path class="st0" d="M36.2,49.3c0.8,0.5,1.2,1.3,1.2,2.3c0,1.6-1,2.6-2.6,2.6c-1.5,0-2.6-1.1-2.6-2.7c0-0.8,0.4-1.6,1-2.1
			c0.4-0.3,1-0.5,1.5-0.5C35.5,49,35.8,49.1,36.2,49.3z M32.9,51.6c0,0.6,0.2,1.3,0.7,1.7c0.4,0.4,0.9,0.6,1.4,0.6
			c0.8,0,1.3-0.3,1.7-0.8c0.2-0.4,0.4-0.8,0.4-1.4c0-1.3-0.9-2.2-2.1-2.2C33.7,49.4,32.9,50.3,32.9,51.6z"/>
		<path class="st0" d="M44.4,49l2.7,3.2c0.6,0.7,0.4,0.5,0.9,1.1c0-0.5,0-0.4,0-0.5c0-0.3,0-0.4,0-0.6v-3.1h0.4v5l-0.2,0.1L45.5,51
			c-0.1-0.1-0.2-0.3-0.4-0.4c-0.1-0.2-0.3-0.4-0.5-0.7V50c0,0.3,0,0.2,0,0.4c0,0.3,0,0.4,0,0.6v3.2h-0.4v-5.1L44.4,49z"/>
		<path class="st0" d="M55.6,49.1c0.5,0,0.8-0.1,1.2-0.1c1,0,1.7,0.2,2.2,0.7c0.5,0.5,0.8,1.1,0.8,1.9c0,0.9-0.4,1.7-1.1,2.1
			c-0.2,0.2-0.5,0.3-0.9,0.3c-0.3,0.1-0.7,0.1-0.9,0.1h-0.3c-0.3,0-0.5,0-1-0.1V49.1z M56.1,53.8c0.3,0,0.5,0.1,0.8,0.1
			c1.6,0,2.4-0.7,2.4-2.2c0-0.7-0.4-1.4-0.9-1.8c-0.4-0.2-0.9-0.4-1.6-0.4c-0.3,0-0.4,0-0.7,0V53.8z"/>
		<path class="st0" d="M70.4,49.3c0.8,0.5,1.2,1.3,1.2,2.3c0,1.6-1,2.6-2.6,2.6c-1.5,0-2.6-1.1-2.6-2.7c0-0.8,0.4-1.6,1-2.1
			c0.4-0.3,1-0.5,1.5-0.5C69.6,49,70,49.1,70.4,49.3z M67,51.6c0,0.6,0.2,1.3,0.7,1.7c0.4,0.4,0.9,0.6,1.4,0.6
			c0.8,0,1.3-0.3,1.7-0.8c0.2-0.4,0.4-0.8,0.4-1.4c0-1.3-0.9-2.2-2.1-2.2C67.8,49.4,67,50.3,67,51.6z"/>
		<path class="st0" d="M83.3,54.2h-0.5l-0.3-3.1c0-0.1,0-0.3-0.1-0.6c0-0.1,0,0,0-0.3l0-0.1l0-0.1c-0.2,0.6-0.2,0.6-0.5,1.1
			l-1.4,3.1h-0.3l-1.4-3.1c-0.2-0.5-0.3-0.6-0.5-1.1l0,0.1l0,0.1c0,0.2,0,0.1,0,0.3c0,0.4,0,0.3,0,0.4c0,0.1,0,0.1,0,0.2L78,54.2
			h-0.4l0.6-5.1h0.3l1.5,3.3c0.2,0.5,0.2,0.5,0.5,1.2l0-0.1c0.2-0.4,0.3-0.7,0.4-1.1l1.5-3.3h0.3L83.3,54.2z"/>
		<path class="st0" d="M92.1,54.2h-0.5v-5.1h0.5V54.2z"/>
		<path class="st0" d="M101.3,49l2.7,3.2c0.6,0.7,0.4,0.5,0.9,1.1c0-0.5,0-0.4,0-0.5c0-0.3,0-0.4,0-0.6v-3.1h0.4v5l-0.2,0.1
			l-2.7-3.2c-0.1-0.1-0.2-0.3-0.4-0.4c-0.1-0.2-0.3-0.4-0.5-0.7V50c0,0.3,0,0.2,0,0.4c0,0.3,0,0.4,0,0.6v3.2h-0.4v-5.1L101.3,49z"/>
		<path class="st0" d="M114.8,54.2h-0.5v-5.1h0.5V54.2z"/>
		<path class="st0" d="M127.3,49.3c0.8,0.5,1.2,1.3,1.2,2.3c0,1.6-1,2.6-2.6,2.6c-1.5,0-2.6-1.1-2.6-2.7c0-0.8,0.4-1.6,1-2.1
			c0.4-0.3,1-0.5,1.5-0.5C126.5,49,126.9,49.1,127.3,49.3z M123.9,51.6c0,0.6,0.2,1.3,0.7,1.7c0.4,0.4,0.9,0.6,1.4,0.6
			c0.8,0,1.3-0.3,1.7-0.8c0.2-0.4,0.4-0.8,0.4-1.4c0-1.3-0.9-2.2-2.1-2.2C124.7,49.4,123.9,50.3,123.9,51.6z"/>
	</g>
	<g>
		<path class="st1" d="M72.2,8.7c0.8,0,1.5-0.7,1.5-1.6c0-0.8-0.7-1.5-1.6-1.5c-0.8,0-1.5,0.7-1.5,1.6C70.7,8.1,71.4,8.8,72.2,8.7z"
			/>
		<g>
			<path class="st2" d="M76,13.2c-5.4-0.4-13.1-6.2-16.7,0.4c4-2.7,8.2,0.3,12.2,1.6"/>
			<path class="st3" d="M83.8,12.7c-7.2,3.1-16.7-4.8-22,2.6c6-3,11.8,2,18.1,1.4c3.3-0.3,4.9-2.2,6-5.4
				C85.6,11.7,84.2,12.5,83.8,12.7z"/>
			<path class="st4" d="M87.1,12.1c-5.6-4.9-12.1,0.4-17.3,2.6c5.2-1,10.1-2.5,15.3,0.1c2.8,1.3,6-0.2,5.7-3.4
				C89.4,13.2,88.1,13,87.1,12.1z"/>
		</g>
	</g>
	<g>
		<path class="st0" d="M5.9,26.9c-1.7,0-3.5,0-5.2,0v0.4c2,0.2,2.3,1.1,2.3,3.3v10c0,2.2-0.2,3.1-2.3,3.4v0.3c1.1,0,2,0,3.1,0
			c1.1,0,2,0,3.2,0v-0.3c-2.1-0.2-2.3-1.1-2.3-3.4v-5h2.4c2.2,0,3.2,0.1,3.4,1.4h0.3c0-1.1,0-1.4,0-1.9c0-0.5,0-0.9,0-2h-0.3
			c-0.1,1.4-1.1,1.4-3.4,1.4H4.7v-4.1c0-2.4,0.4-2.5,3.5-2.5c2.8,0,3.3,1.1,3.9,2.5l0.2,0c0-0.6-0.1-1.2-0.1-1.8
			c0-0.7,0-1.3,0.1-1.9C11.3,26.9,9.5,26.9,5.9,26.9z"/>
		<path class="st0" d="M26.1,40.8c-1,1.4-1.8,2.5-5.3,2.5c-3,0-3-0.2-3-2.7v-10c0-2.2,0.2-3.1,2.3-3.3v-0.4c-1.1,0-2,0-3.1,0
			c-1.1,0-2,0-3.2,0v0.4c2,0.2,2.3,1.1,2.3,3.3v10c0,2.2-0.2,3.1-2.3,3.4v0.3c1.8,0,3.3-0.1,5.1-0.1c3,0,4.9,0,6.1,0.2
			c0.2-1.1,0.7-2.3,1.3-3.4L26.1,40.8z"/>
		<path class="st0" d="M64.2,40.5c-0.8-10.5-0.8-10.7-0.8-10.9c0-1.6,0.5-2.2,2.3-2.4v-0.4c-1.1,0-1.1,0-2.2,0c-1.1,0-0.7,0-2.1,0
			l-6.2,14l-6-14c-0.3,0-1.5,0-1.7,0c-1.1,0-1.4,0-2.5,0v0.4c1.7,0.2,2.3,0.9,2.3,2.4c0,0.3,0,0.6-1,11c-0.2,1.9-0.3,2.8-1.9,3.1v0
			c-1.8-0.1-2.2-1-3-3c-1.9-4.8-3.6-8.8-5.5-14.5l-0.3,0C32.4,33.3,28.6,42,28,42.9c-0.3,0.5-0.7,0.8-2,1v0.4c1.1,0,1.8,0,3,0
			c1.3,0,1.6,0,3,0v-0.4c-1.8,0-2.2-0.4-2.2-1.1c0-0.9,0.8-2.7,2.7-7.1h4.8c2.4,6.3,2.7,6.8,2.7,7.3c0,0.6-0.2,0.9-1.7,1v0.4
			c1.3,0,1.5,0,2.8,0c1.4,0,1.8,0,3.2,0v0c0.9,0,1.4,0,2.4,0c1.1,0,1.8,0,3,0v-0.3c-1.8-0.2-2.4-0.9-2.4-2.5c0-0.3,0-0.5,0-0.9
			l1-11.4l6.3,14.6l0.3-0.1l6.5-14.8c1.1,12,1.1,12.3,1.1,12.6c0,1.6-0.6,2.3-2.3,2.5v0.3c1.1,0,2,0,3.1,0c1.1,0,2,0,3.2,0v-0.3
			C64.4,43.6,64.3,42.7,64.2,40.5z M33,34.4c0.6-1.4,1.3-3,2.1-4.8c0.7,1.9,1.3,3.5,1.8,4.8H33z"/>
		<path class="st0" d="M75,43.2c-3.4,0-3.5-0.2-3.5-2.7v-4.9h2.3c2.2,0,3.2,0.1,3.4,1.4h0.3c0-1.1,0-1.4,0-1.9c0-0.5,0-0.9,0-2h-0.3
			c-0.1,1.4-1.1,1.4-3.4,1.4h-2.3v-4.1c0-2.4,0.4-2.5,3.5-2.5c2.8,0,3.3,1.1,3.9,2.5l0.2,0c0-0.6-0.1-1.2-0.1-1.8
			c0-0.7,0-1.3,0.1-1.9c-1.1,0.2-2.9,0.2-6.5,0.2c-1.7,0-3.5,0-5.2,0v0.4c2,0.2,2.3,1.1,2.3,3.3v10c0,2.2-0.2,3.1-2.3,3.4v0.3
			c1.8,0,3.7-0.1,5.6-0.1c3,0,4.9,0,6.1,0.2c0.2-1.1,0.7-2.3,1.3-3.4l-0.2-0.2C79.3,42.2,78.5,43.2,75,43.2z"/>
		<path class="st0" d="M94.5,26.9v0.4c1.4,0.2,2.3,0.4,2.3,2.8v10.9C92,35,82.7,23.2,80.6,23.2c-0.9,0-1.7,0.3-2.8,0.9v0.4
			c0.3-0.1,0.6-0.1,0.9-0.1c1.8,0,3.2,1.8,5.3,4v12.7c0,2.5-0.9,2.5-2.3,2.8v0.4c1.1,0,1.8,0,2.9,0c1.1,0,1.8,0,2.9,0v-0.4
			c-1.4-0.2-2.3-0.4-2.3-2.8V29.6c4,4.6,9.1,10.7,12.5,14.9l0.2,0V30c0-2.5,0.9-2.5,2.3-2.8v-0.4c-1.1,0-1.8,0-2.9,0
			C96.3,26.9,95.6,26.9,94.5,26.9z"/>
		<path class="st0" d="M111.9,27.3c2.5,0,4.3,1.2,4.5,2.6h0.4l0.4-2.8c-0.8-0.3-3-0.8-5.4-0.8c-6.5,0-9.9,4.6-9.9,9.3
			c0,4.5,3.2,9,9.9,9c1.5,0,3-0.2,4.3-0.6l0.9-2.6h-0.4c-1.1,2.3-3.5,2.3-4,2.3c-5.9,0-8.8-4.1-8.8-8.2
			C103.9,31.5,106.3,27.3,111.9,27.3z"/>
		<path class="st0" d="M127.9,26.3c-5,0-9.1,4.1-9.1,9.2c0,5.2,4.1,9.2,9.1,9.2c5,0,9.1-4.1,9.1-9.2C137,30.4,132.9,26.3,127.9,26.3
			z M127.9,43.7c-4,0-7.1-3.2-7.1-8.2c0-5,3.1-8.2,7.1-8.2c4,0,7.1,3.2,7.1,8.2C135,40.5,131.9,43.7,127.9,43.7z"/>
		<path class="st0" d="M140.9,30.9c0-2.2,1.5-3.4,4.7-3.4c1.2,0,2.1,0.7,2.2,2.5h0.4l0.2-3.2c-0.6-0.2-1.4-0.4-2.3-0.4
			c-4.1,0-6.6,2-6.6,4.8c0,5.8,8.2,4.4,8.2,9.2c0,2.9-3.4,3.2-4.5,3.2c-2.4,0-3.1-0.3-3.6-2.7h-0.4l-0.2,3.2c1,0.4,2.2,0.7,3.4,0.7
			c2.9,0,6.7-1,6.7-4.9C149.3,34.2,140.9,35.1,140.9,30.9z"/>
	</g>
</g>
</svg>
